<svg xmlns="http://www.w3.org/2000/svg" width="480" height="320" viewBox="0 0 480 320">
  <rect width="480" height="320" fill="#f8fafc"/>
  <rect x="0" y="86" width="480" height="128" rx="20" fill="#ffffff"/>

  <circle cx="124" cy="116" r="9" fill="none" stroke="#9ca3af" stroke-width="2"/>
  <path d="M 124 116 L 124 111 M 124 116 L 129 118" stroke="#9ca3af" stroke-width="2" stroke-linecap="round"/>
  <text x="148" y="123" fill="#9ca3af" font-family="-apple-system,BlinkMacSystemFont,'PingFang SC',sans-serif" font-size="22">9 分钟前</text>

  <path d="M 282 107 A 12 10 0 1 0 263 124" fill="none" stroke="#6b7280" stroke-width="2"/>
  <path d="M 282 107 L 287 110 L 282 114 Z" fill="#6b7280"/>
  <path d="M 263 124 L 259 121" stroke="#6b7280" stroke-width="2" stroke-linecap="round"/>

  <rect x="318" y="94" width="112" height="58" rx="14" fill="#f3f4f6"/>
  <path d="M 338 123 L 344 129 L 356 114" fill="none" stroke="#9ca3af" stroke-width="2" stroke-linecap="round" stroke-linejoin="round"/>
  <text x="370" y="131" fill="#9ca3af" font-family="-apple-system,BlinkMacSystemFont,'PingFang SC',sans-serif" font-size="22" font-weight="600">使用中</text>

  <text x="78" y="170" fill="#6b7280" font-family="-apple-system,BlinkMacSystemFont,'PingFang SC',sans-serif" font-size="22">剩余：</text>
  <text x="156" y="171" fill="#16a34a" font-family="Menlo,Consolas,monospace" font-size="24" font-weight="700">25.31</text>
  <text x="260" y="171" fill="#6b7280" font-family="Menlo,Consolas,monospace" font-size="24">USD</text>
</svg>
